<!--
 Licensed to the Apache Software Foundation (ASF) under one
 or more contributor license agreements.  See the NOTICE file
 distributed with this work for additional information
 regarding copyright ownership.  The ASF licenses this file
 to you under the Apache License, Version 2.0 (the
 "License"); you may not use this file except in compliance
 with the License.  You may obtain a copy of the License at

      http://www.apache.org/licenses/LICENSE-2.0

 Unless required by applicable law or agreed to in writing, software
 distributed under the License is distributed on an "AS IS" BASIS,
 WITHOUT WARRANTIES OR CONDITIONS OF ANY KIND, either express or implied.
 See the License for the specific language governing permissions and
 limitations under the License.
-->

<svg xmlns="http://www.w3.org/2000/svg" xmlns:xlink="http://www.w3.org/1999/xlink" fill="none" version="1.1" width="403.4100341796875" height="171.5" viewBox="0 0 403.4100341796875 171.5"><defs><clipPath id="master_svg0_14_8989"><rect x="180" y="54.5" width="223.41001892089844" height="91.2300033569336" rx="0"/></clipPath><linearGradient x1="0.5" y1="0" x2="0.5" y2="1" id="master_svg1_14_05037"><stop offset="0%" stop-color="#FFFFFF" stop-opacity="1"/><stop offset="33.571428060531616%" stop-color="#FFFFFF" stop-opacity="1"/><stop offset="100%" stop-color="#96A1FF" stop-opacity="1"/></linearGradient><linearGradient x1="0.5" y1="0" x2="0.5" y2="1" id="master_svg2_14_2646"><stop offset="0%" stop-color="#002CDC" stop-opacity="1"/><stop offset="100%" stop-color="#3B5FEE" stop-opacity="1"/></linearGradient></defs><g><g clip-path="url(#master_svg0_14_8989)"><g><path d="M209.625,54.5L237.465,54.5L236.20499999999998,65.225L211.38,65.225C205.695,65.225,200.91,69.455,200.20499999999998,75.08L198.72,86.96000000000001L230.07,86.96000000000001L228.79500000000002,97.685L197.43,97.685L192.42,138.26C191.895,142.51999999999998,188.28,145.715,183.99,145.715L180,145.715L188.955,72.785C190.23,62.345,199.095,54.5,209.625,54.5Z" fill="#000000" fill-opacity="1" style="mix-blend-mode:passthrough"/></g><g><path d="M235.79966546875,127.715L244.72466796875,54.5L255.92966796875,54.5L247.00466796875,127.715L235.78466796875,127.715L235.79966546875,127.715Z" fill="#000000" fill-opacity="1" style="mix-blend-mode:passthrough"/></g><g><path d="M294.10490234375,117.00455078125L299.36990234375,73.41455078125L310.57490234375,73.41455078125L303.94490234375,127.72955078125L279.46490234375,127.72955078125C266.00990234375,127.72955078125,259.27490234375,121.54955078124999,259.27490234375,109.20455078124999C259.27490234375,107.70455078124999,259.37990234375,106.08455078125,259.57490334375,104.32955078124999L263.38490234375,73.41455364227L274.58990234375,73.41455364227L270.79490234375,104.61455078125C270.65990234375,105.45455078124999,270.59990234375,106.62455078125001,270.59990234375,108.12455078125001C270.59990234375,111.49955078125001,271.39490234375,113.83955078125,272.98490234375,115.14455078124999C274.57490234375,116.44955078125,277.15490234375,117.09455078125,280.73990234375,117.09455078125L294.08990234375,117.00455078125L294.10490234375,117.00455078125Z" fill="#000000" fill-opacity="1" style="mix-blend-mode:passthrough"/></g><g><path d="M327.360234375,128.1196875C321.375244375,127.9846875,316.215234375,127.7296875,311.865234375,127.3396875L312.765232375,120.81468749999999C313.080234375,118.5796875,315.090234375,116.9746875,317.340234375,117.16968750000001C321.870234375,117.54468750000001,325.635234375,117.78468749999999,328.635234375,117.88968750000001L331.950234375,117.88968750000001C336.105234375,117.88968750000001,339.015234375,117.3646875,340.680234375,116.3296875C342.330234375,115.29468750000001,343.365234375,113.79468750000001,343.755234375,111.84468749999999C343.815234375,111.51468750000001,343.860234375,111.06468749999999,343.860234375,110.4796875C343.860234375,108.8596875,343.605234375,107.7796875,343.080234375,107.2546875C342.630234375,106.53468749999999,341.880234375,106.0546875,340.845234375,105.78468749999999C339.810234375,105.5296875,337.815234375,105.2296875,334.890234375,104.9146875L332.655234375,104.6296875C329.280234375,104.3746875,326.055234375,103.7896875,322.995234375,102.8746875C320.595244375,101.9596875,318.810244375,100.6546875,317.625244375,98.9296875C316.455244375,97.2046875,315.870244375,94.9246875,315.870244375,92.0596875C315.870244375,91.4746875,315.930244375,90.46968749999999,316.065234375,89.0446875C316.515244375,85.0846875,317.655234375,81.9796875,319.485234375,79.7296875C321.300234375,77.4796875,323.835234375,75.8746875,327.090234375,74.8996875C330.345234375,73.9246885,334.530234375,73.4296875,339.660234375,73.4296875L343.665234375,73.4296875L357.420234375,73.5346875L356.610234375,80.1346875C356.355234375,82.26468750000001,354.540234375,83.8696875,352.395234375,83.8696875L338.415234375,83.8696875C335.550234375,83.8696875,333.375234375,84.0196875,331.875234375,84.3046875C330.375234375,84.6046875,329.295234375,85.0846875,328.605234375,85.7746875C327.915234375,86.4646875,327.480234375,87.4546875,327.285234375,88.7446875C327.225234375,89.0746875,327.180234375,89.4946875,327.180234375,90.0196875C327.180234375,91.0546875,327.480234375,91.9396875,328.050234375,92.6446875C328.695234375,93.4246875,329.655234375,93.9646875,330.930234375,94.2496875C332.190234375,94.5346875,334.560234375,94.8796875,337.995234375,95.2696875C342.090234375,95.6596875,345.435234375,96.2746875,348.045234375,97.1296875C350.325234375,97.9096875,352.050234375,99.2446875,353.265234375,101.1346875C354.465234375,103.0246875,355.065234375,105.4546875,355.065234375,108.4546875C355.065234375,109.8796875,355.005234375,110.9896875,354.870234375,111.7696875C354.090234375,117.81468749999999,351.810234375,122.0596875,348.045234375,124.4896875C344.280234375,126.91968750000001,338.490234375,128.1496875,330.690234375,128.1496875L327.375234375,128.1496875L327.360234375,128.1196875Z" fill="#000000" fill-opacity="1" style="mix-blend-mode:passthrough"/></g><g><path d="M373.3651171875,128.1196875C367.3801271875,127.9846875,362.2201171875,127.7296875,357.8701171875,127.3396875L358.7701151875,120.81468749999999C359.0851171875,118.5796875,361.0951171875,116.9746875,363.3451171875,117.16968750000001C367.8751171875,117.54468750000001,371.6401171875,117.78468749999999,374.6401171875,117.88968750000001L377.9551171875,117.88968750000001C382.1101171875,117.88968750000001,385.0201171875,117.3646875,386.6851171875,116.3296875C388.3351171875,115.29468750000001,389.3701171875,113.79468750000001,389.7601171875,111.84468749999999C389.8201171875,111.51468750000001,389.8652171875,111.06468749999999,389.8652171875,110.4796875C389.8652171875,108.8596875,389.6102171875,107.7796875,389.0851171875,107.2546875C388.6351171875,106.53468749999999,387.8851171875,106.0546875,386.8501171875,105.78468749999999C385.8151171875,105.5296875,383.8201171875,105.2296875,380.8951171875,104.9146875L378.6601171875,104.6296875C375.2851171875,104.3746875,372.0601171875,103.7896875,369.0001171875,102.8746875C366.6001371875,101.9596875,364.8151371875,100.6546875,363.6301371875,98.9296875C362.4601371875,97.2046875,361.8751371875,94.9246875,361.8751371875,92.0596875C361.8751371875,91.4746875,361.9351371875,90.46968749999999,362.0701371875,89.0446875C362.5201371875,85.0846875,363.6601271875,81.9796875,365.4901271875,79.7296875C367.3051271875,77.4796875,369.8401171875,75.8746875,373.0951171875,74.8996875C376.3501171875,73.9246885,380.5351171875,73.4296875,385.6651171875,73.4296875L389.6701171875,73.4296875L403.4251171875,73.5346875L402.6151171875,80.1346875C402.3601171875,82.26468750000001,400.5451171875,83.8696875,398.4001171875,83.8696875L384.4201171875,83.8696875C381.5551171875,83.8696875,379.3801171875,84.0196875,377.8801171875,84.3046875C376.3801171875,84.6046875,375.3001171875,85.0846875,374.6102171875,85.7746875C373.9202171875,86.4646875,373.4852171875,87.4546875,373.2901171875,88.7446875C373.2302171875,89.0746875,373.1851171875,89.4946875,373.1851171875,90.0196875C373.1851171875,91.0546875,373.4851171875,91.9396875,374.0551171875,92.6446875C374.7001171875,93.4246875,375.6601171875,93.9646875,376.9351171875,94.2496875C378.1951171875,94.5346875,380.5651171875,94.8796875,384.0001171875,95.2696875C388.0951171875,95.6596875,391.4402171875,96.2746875,394.0501171875,97.1296875C396.3301171875,97.9096875,398.0551171875,99.2446875,399.2701171875,101.1346875C400.4701171875,103.0246875,401.0701171875,105.4546875,401.0701171875,108.4546875C401.0701171875,109.8796875,401.0101171875,110.9896875,400.8751171875,111.7696875C400.0951171875,117.81468749999999,397.8151171875,122.0596875,394.0501171875,124.4896875C390.2851171875,126.91968750000001,384.4951171875,128.1496875,376.6951171875,128.1496875L373.3801171875,128.1496875L373.3651171875,128.1196875Z" fill="#000000" fill-opacity="1" style="mix-blend-mode:passthrough"/></g></g><g><g transform="matrix(0.653420627117157,-0.7569950819015503,0.7569950819015503,0.653420627117157,2.759073555469513,39.02634325623512)"><ellipse cx="48.59999990463257" cy="22" rx="4.599999904632568" ry="5.5" fill="#000000" fill-opacity="1" style="mix-blend-mode:passthrough"/></g><g transform="matrix(0.7823152542114258,-0.6228827238082886,0.6228827238082886,0.7823152542114258,11.673297647153959,69.30429944698699)"><ellipse cx="109.490234375" cy="21.751171827316284" rx="4.5" ry="3.799999952316284" fill="#000000" fill-opacity="1" style="mix-blend-mode:passthrough"/></g><g><path d="M13.130000372772216,120.75960174560547C9.070000372772217,120.75960174560547,7.860000372772217,119.28960174560547,7.550000172772217,118.05960174560548C7.0900003727722165,116.20960174560547,8.580000372772217,114.12960174560547,11.430000372772216,112.61960174560546C21.120020372772217,107.48960174560547,34.980020372772216,97.32960174560547,42.130020372772215,85.58959974560547L42.58002037277222,84.84960174560547L43.450020372772215,84.86959834560547C44.240020372772214,84.88959504560547,44.910020372772216,85.24959574560548,45.350020372772214,85.87960174560547C46.590020372772216,87.69960174560546,45.57002037277222,91.10960174560547,42.93002037277222,98.44960174560546C41.880020372772215,101.37960174560547,40.79002037277222,104.40960174560547,40.590020372772216,105.98960174560547C39.72002037277222,112.73960174560547,33.76002037277222,116.85960174560546,20.660020372772216,119.75960174560547C17.650020372772218,120.42960174560547,15.120000372772218,120.75960174560547,13.130000372772216,120.75960174560547Z" fill="#B0B7F3" fill-opacity="1"/><path d="M20.984220372772217,121.22410174560547L20.985920372772217,121.22380174560547Q40.701520372772215,116.85880174560546,42.07812037277222,106.17800174560547Q42.255220372772214,104.77850174560547,44.307020372772215,99.05340174560547L44.341520372772216,98.95730174560546Q48.395620372772214,87.68567174560548,46.579720372772215,85.02071874560546Q45.461820372772216,83.42004174560547,43.48442037277222,83.36999174560547L41.748420372772216,83.33009174560547L40.84892037277222,84.80936734560547Q36.05152037277222,92.68648174560546,26.771320372772216,100.43170174560547Q19.009920372772214,106.90940174560546,10.727740372772217,111.29410174560547Q5.067750372772217,114.29290174560546,6.0954903727722165,118.42620174560547Q7.061633372772217,122.25960174560547,13.130000372772216,122.25960174560547Q16.331720372772217,122.25960174560547,20.984220372772217,121.22410174560547ZM39.10192037277221,105.80120174560547Q37.995420372772216,114.38570174560547,20.33582037277222,118.29510174560548L20.33412037277222,118.29540174560546Q16.00248037277222,119.25960174560547,13.130010372772217,119.25960174560547Q9.399350372772217,119.25960174560547,9.004520372772216,117.69300174560547Q8.545160372772216,115.84560174560546,12.132260372772217,113.94510174560547Q20.691120372772218,109.41390174560547,28.693620372772216,102.73500174560547Q38.355220372772216,94.67132174560547,43.41112037277222,86.36983174560547L43.411520372772216,86.36911174560547L43.415520372772214,86.36920174560547Q43.87032037277222,86.38072174560547,44.120220372772216,86.73848174560547Q45.054720372772216,88.11024174560546,41.518520372772215,97.94190174560546L41.48292037277222,98.04130174560547Q39.320320372772215,104.07580174560547,39.10192037277221,105.80120174560547Z" fill-rule="evenodd" fill="#000000" fill-opacity="1"/></g><g><path d="M105.119969140625,72.2403791809082C103.139999140625,72.2403791809082,101.100009140625,71.4603791809082,99.529999140625,70.1003791809082C98.749999140625,69.4303791809082,91.999999140625,63.180379180908204,94.110000140625,50.460379180908205L94.739999140625,46.6503791809082L96.849999140625,49.890379180908205C97.889999140625,51.500379180908205,99.769999140625,53.2203791809082,101.759999140625,55.0503791809082C104.439969140625,57.5103791809082,107.469969140625,60.3003791809082,109.539969140625,63.7203791809082C111.319969140625,66.6703791809082,110.669969140625,68.7203791809082,110.12996914062501,69.6803791809082C109.219969140625,71.2803791809082,107.359969140625,72.2403791809082,105.12996914062501,72.2403791809082L105.119969140625,72.2403791809082Z" fill="#B0B7F3" fill-opacity="1"/><path d="M105.119969140625,73.7403791809082L105.12996914062501,73.7403791809082Q109.54646914062499,73.7403791809082,111.43736914062501,70.4157791809082Q113.316269140625,67.0754791809082,110.823269140625,62.943679180908205Q108.63036914062499,59.3206791809082,102.775339140625,53.9462591809082L102.696679140625,53.873929180908206Q99.032449140625,50.5045291809082,98.106959140625,49.071809180908204L93.889965140625,42.5964291809082L92.630219140625,50.2149091809082Q91.219869140625,58.717179180908204,94.378749140625,65.4372791809082Q96.125649140625,69.1535791809082,98.547879140625,71.2341791809082Q101.441109140625,73.7403791809082,105.119969140625,73.7403791809082ZM108.822669140625,68.9449791809082Q107.801469140625,70.7403791809082,105.12996914062501,70.7403791809082L105.119969140625,70.7403791809082Q102.559789140625,70.7403791809082,100.512119140625,68.9665791809082Q98.567499140625,67.29617918090821,97.093749140625,64.1609791809082Q94.332310140625,58.2864791809082,95.589779140625,50.7058491809082L95.590029140625,50.7043291809082L95.593039140625,50.708949180908206Q96.720139140625,52.453799180908206,100.666059140625,56.0822291809082L100.744649140625,56.1544991809082Q106.285869140625,61.240779180908206,108.256769140625,64.4970791809082Q109.844469140625,67.12837918090821,108.822669140625,68.9449791809082Z" fill-rule="evenodd" fill="#000000" fill-opacity="1"/></g><g><path d="M35.3707,124.66C33.6507,117.22,36.0507,109.3,38.3607,101.64C39.8107,96.83,41.1907,92.28,41.3607,88.33C41.7307,79.78,43.5307,63.15,44.1807,57.33C43.2407,57.69,41.8507,58.38,39.9707,59.67C36.0907,62.35,24.2907,70.5,14.42069,70.5C13.86069,70.5,13.310690000000001,70.47,12.79069,70.42C9.810690000000001,70.13,7.450694,67.81,7.0506941,64.78C6.820694,63.01,6.9106941,56.93,17.9007,52.82C20.9907,51.68,23.8807,49.35,27.5407,46.39C30.2907,44.17,33.4107,41.65,37.390699999999995,38.98C38.7107,38.08,40.1307,37.47,41.5007,36.88C45.2807,35.25,48.5407,33.85,49.9207,26.74C52.2007,15,55.1007,8.969999999999999,66.2907,4.26C70.5707,2.46,75.7007,1.5,81.1107,1.5C88.7307,1.5,96.3207,3.4,101.4207,6.57C109.871,11.83,112.681,23.31,111.921,29.41C111.021,36.63,106.6007,42,97.6207,46.75C95.6507,54.46,93.7907,65.3,95.5607,74.59C95.7507,74.91,96.0807,75.47,96.1507,75.59C97.9007,78.21,100.3607,79.8,102.7307,81.33C105.1807,82.91,107.721,84.55,109.321,87.27C110.451,89.25,110.681,92.38,110.011,96.85L109.831,98.1L108.571,98.13C100.9007,98.32,83.5,99.5,73.8907,104.99C64.28139999999999,110.48,47.5807,117.84,37.7607,125.51L35.9007,126.96L35.3707,124.67L35.3707,124.66Z" fill="url(#master_svg1_14_05037)" fill-opacity="1"/><path d="M33.8708,124.827Q32.1566,117.018,36.904399999999995,101.2737L36.9246,101.2069L36.9597,101.0905Q39.7016,91.9954,39.8621,88.2655Q40.2443,79.433,42.3872,59.8978Q41.6441,60.3409,40.8194,60.9068Q24.7591,72,14.42069,72Q13.55073,72,12.647120000000001,71.9131Q6.399075,71.3051,5.5636,64.97630000000001Q5.16425,61.9031,6.9856073,58.8997Q9.80846,54.2448,17.3753,51.415Q20.2562,50.3522,26.5974,45.2237L26.6182,45.2069Q32.5295,40.4349,36.555,37.7343Q37.9788,36.7635,40.8885,35.5104L40.9074,35.5023L40.9168,35.4983Q44.3026,34.0382,45.5597,32.794799999999995Q47.6115,30.7651,48.4482,26.4542Q50.3351,16.7384,53.5217,12.0238Q57.316,6.41009,65.7088,2.8774800000000003Q72.5508,0,81.1107,0Q93.6921,0,102.2126,5.29604Q108.435,9.16913,111.523,17.1326Q114.126,23.844,113.409,29.5955Q112.038,40.5916,98.9132,47.7583Q95.0259,63.339,96.9865,74.0541L97.0869,74.2237L97.4207,74.7906Q99.0102,77.1427,103.5443,80.0698Q108.831,83.4793,110.614,86.5095Q112.565,89.9284,111.494,97.0724L111.135,99.5694L108.606,99.6296Q85.2858,100.2073,74.6348,106.292Q71.5751,108.04,63.8062,112.028Q45.295,121.529,38.684,126.692L34.969300000000004,129.588L33.8708,124.842L33.8708,124.827ZM36.8341,124.33L36.8321,124.322Q35.2071,117.293,39.7767,102.14L39.7968,102.073L39.832,101.956Q42.6826,92.5007,42.8593,88.3945Q43.2633,79.0578,45.6714,57.4965L45.9449,55.0481L43.6442,55.9292Q41.6684,56.6859,39.122,58.4332Q23.8237,69,14.42069,69Q13.69459,69,12.93427,68.9269Q9.061399999999999,68.55,8.53779,64.5837Q7.71239,58.2316,18.426099999999998,54.2249Q21.7583,52.9956,28.4839,47.5563L28.5026,47.5412Q34.3108,42.8524,38.2264,40.2257Q39.4305,39.4047,42.0751,38.2658L42.094,38.2577L42.1047,38.2531Q46.0101,36.569,47.6695,34.9276Q50.38,32.246300000000005,51.3932,27.0258Q53.1633,17.9112,56.0072,13.7037Q59.302,8.82909,66.8726,5.64252Q73.1559,3,81.1107,3Q92.8358,3,100.6288,7.84396Q105.9994,11.18706,108.726,18.2174Q111.055,24.2236,110.432,29.2246Q109.224,38.9154,96.9193,45.4241L96.3319,45.7348L96.1674,46.3787Q91.866,63.2128,94.0872,74.8707L94.1363,75.1283L94.5052,75.7517L94.8797,76.3877L94.9034,76.4231Q96.8282,79.3049,101.9171,82.5902Q106.6065,85.6144,108.028,88.0305Q109.444,90.5122,108.527,96.6277L108.527,96.6306Q84.4528,97.228,73.1466,103.688Q70.1454,105.402,62.4364,109.359Q43.6724,118.989,36.8374,124.328L36.8341,124.33Z" fill-rule="evenodd" fill="#000000" fill-opacity="1"/></g><g><path d="M79,82.38669999999999C71,83.38669999999999,66.00000622869,79.3869,66.00000311434,71.8868C66,64.3867,67,52.3867,72.49993,43.88664C79.3399,37.74664,96.5299,41.226865,95.9999,44.38687C93,49.88672,91.21039999999999,63.414100000000005,90,71.8867C89.5,75.38669999999999,87,81.38669999999999,79,82.38669999999999Z" fill="#FFFFFF" fill-opacity="1" style="mix-blend-mode:passthrough"/></g><g><path d="M92.40000255126954,33.64025049560547C94.50000255126953,31.04025049560547,97.00000255126953,29.24025049560547,97.10000255126953,27.840250495605467C97.20000255126953,26.44025049560547,92.40000255126954,24.340251495605468,90.50000255126953,24.64025119560547C88.60000255126953,24.94025049560547,84.19999255126953,27.840250495605467,84.30000255126953,29.44025049560547C84.40001255126953,31.04025049560547,88.00000255126953,32.54025049560547,89.80000255126953,33.84025049560547C89.60000255126953,35.64022049560547,86.65000255126954,37.41022049560547,84.39000255126953,37.41022049560547C81.37000255126954,37.41022049560547,77.88999955126953,35.71022049560547,77.68000035126953,36.510220495605466C77.41000355126953,37.56022049560547,80.78000255126953,39.14022049560547,84.39000255126953,39.14022049560547C86.90999255126953,39.14022049560547,88.48000255126954,38.24022049560547,89.78000255126953,37.07022049560547C90.99000255126953,35.99022049560547,91.91000255126953,36.54022049560547,92.33000255126953,36.88022049560547C93.31000255126953,37.68022049560547,95.30000255126953,38.24022049560547,96.91000255126953,38.24022049560547C98.75000255126953,38.24022049560547,101.70000255126953,36.77022049560547,101.42000255126953,36.120220495605466C100.97000255126953,35.05022049560547,98.79000255126954,36.64022049560547,97.17000255126953,36.64022049560547C93.80000255126953,36.64022049560547,92.08000255126953,34.74022049560547,92.38000255126953,33.64025049560547L92.40000255126954,33.64025049560547Z" fill="#000000" fill-opacity="1" style="mix-blend-mode:passthrough"/></g><g><ellipse cx="73.29999995231628" cy="22.87967801094055" rx="2.299999952316284" ry="3.200000047683716" fill="#000000" fill-opacity="1" style="mix-blend-mode:passthrough"/></g><g><ellipse cx="103.39000082015991" cy="22.879873275756836" rx="2.0999999046325684" ry="3" fill="#000000" fill-opacity="1" style="mix-blend-mode:passthrough"/></g><g><path d="M79.02001440429687,105.64Q76.50000440429687,106.52,68.26999640429688,109.8Q67.65999640429688,108.05,68.91999840429688,105.35C73.01999440429688,98.05,70.61999440429688,92.75,85.42001440429688,89.25C80.22001440429688,91.85,79.42001440429688,95.15,79.32001440429687,101.25Q79.34001440429688,103.78,79.02001440429687,105.65L79.02001440429687,105.64Z" fill="#000000" fill-opacity="1" style="mix-blend-mode:passthrough"/></g><g><path d="M0.0000113502,139.93639237060546C7.89472,141.46179237060545,19.707,142.57839237060546,27.0463,140.78379237060545C37.6982,138.18169237060548,49.2924,126.80629237060546,63.7428,114.89259237060547C78.1933,102.97880237060546,103.246,95.78070237060547,123.132,102.60992237060547C128.874,104.58389237060547,131.81,108.53189237060548,131.81,108.63159237060547C130.124,107.53499237060547,128.339,106.33859237060547,126.553,105.54099237060547C118.024,101.65284237060547,107.808,101.55314237060547,98.7831,103.64679237060547C97.4937,103.94589237060546,96.3036,104.24499237060547,95.0142,104.64369237060546C93.8241,105.04249237060547,92.5347,105.44129237060547,91.3446,105.84009237060548C90.1544,106.23889237060547,88.9643,106.73739237060546,87.7741,107.23589237060547C86.5839,107.73429237060547,85.3938,108.33249237060546,84.3028,108.83099237060547C83.1127,109.42919237060546,82.0217,110.02739237060547,80.9307,110.72519237060547C79.8397,111.42309237060547,78.7487,112.02129237060547,77.6578,112.81889237060547C76.5668,113.51679237060547,75.575,114.31429237060547,74.484,115.01219237060548C73.4922,115.80979237060546,72.4012,116.60739237060547,71.5086,117.40489237060547C67.7398,120.69489237060547,64.2685,124.38369237060547,60.7972,127.87309237060546C46.912,142.72789237060547,36.7957,150.70359237060546,15.4721,151.40149237060547C12.0008,151.50119237060545,3.37213,151.20209237060547,0.0991972,149.50729237060546C23.8032,167.15359237060545,60.2021,172.53729237060548,79.1455,171.34089237060547C99.0806,170.14449237060546,122.487,161.67029237060547,128.835,145.91819237060548C116.239,136.54669237060546,112.271,151.89999237060547,102.155,146.81549237060545C92.0388,141.73089237060546,98.2871,129.46829237060547,107.908,121.99099237060547C117.528,114.51369237060547,124.282,115.18169237060548,127.833,116.64719237060547C133.377,118.93029237060547,133.506,123.28699237060547,133.198,124.38369237060547C132.812,125.77949237060547,131.711,126.67669237060547,130.62,127.57399237060547C133.694,127.07549237060547,135.678,126.37759237060547,138.058,123.98489237060546C139.943,121.39279237060546,140.339,118.40189237060547,139.744,115.31129237060547C138.752,109.62859237060547,135.48,104.24499237060547,130.818,101.05466237060547C119.512,93.07891737060547,105.101,92.72998037060547,91.2057,94.14567237060547C75.5551,95.74082237060547,56.473,106.41829237060547,41.2191,118.16259237060547C31.9855,125.27099237060547,16.1663,136.85579237060546,0,139.94639237060545L0.0000113502,139.93639237060546ZM77.0627,140.93339237060547C67.5414,151.99969237060546,51.6032,159.35729237060548,35.6055,158.18089237060548C27.8695,157.61259237060546,22.8114,156.48609237060546,21.7204,155.48909237060548C34.0187,156.88479237060545,48.5981,152.49819237060547,54.3505,148.80939237060545C60.1029,145.12059237060546,67.0455,136.44699237060547,70.8144,133.85489237060546C74.5832,131.26279237060547,76.7651,131.86099237060546,78.0545,132.75819237060546C80.2364,134.15399237060547,79.6414,137.94249237060546,77.0627,140.93339237060547Z" fill="url(#master_svg2_14_2646)" fill-opacity="1" style="mix-blend-mode:passthrough"/></g><g><path d="M72,45.5C76,47.5,81.50006,49.00005,87,49Q92.4999,48.99995,96.9999,47.49995L99.5,44Q89,49,72,45.5Z" fill="#000000" fill-opacity="1"/></g></g></g></svg>